HIERARCHY
ROOT Hips
{
	OFFSET 0.000000 0.000000 0.000000
	CHANNELS 6 Xposition Yposition Zposition Zrotation Xrotation Yrotation
	JOINT Spine
	{
		OFFSET 0.000000 -0.000000 0.070167
		CHANNELS 6 Xposition Yposition Zposition Zrotation Xrotation Yrotation
		JOINT Spine1
		{
			OFFSET 0.000000 -0.000000 0.166666
			CHANNELS 6 Xposition Yposition Zposition Zrotation Xrotation Yrotation
			JOINT Neck
			{
				OFFSET 0.000000 -0.000000 0.183780
				CHANNELS 6 Xposition Yposition Zposition Zrotation Xrotation Yrotation
				JOINT Head
				{
					OFFSET 0.000000 -0.017114 0.132633
					CHANNELS 6 Xposition Yposition Zposition Zrotation Xrotation Yrotation
					End Site
					{
						OFFSET 0.000000 -0.000000 0.171140
					}
				}
			}
			JOINT LeftShoulder
			{
				OFFSET 0.034466 0.004091 0.144174
				CHANNELS 6 Xposition Yposition Zposition Zrotation Xrotation Yrotation
				JOINT LeftArm
				{
					OFFSET 0.121044 0.000000 0.000000
					CHANNELS 6 Xposition Yposition Zposition Zrotation Xrotation Yrotation
					JOINT LeftForeArm
					{
						OFFSET 0.257070 0.000000 0.000000
						CHANNELS 6 Xposition Yposition Zposition Zrotation Xrotation Yrotation
						JOINT LeftHand
						{
							OFFSET 0.224060 0.000000 0.000000
							CHANNELS 6 Xposition Yposition Zposition Zrotation Xrotation Yrotation
							End Site
							{
								OFFSET 0.128355 0.000000 0.000000
							}
						}
					}
				}
			}
			JOINT RightShoulder
			{
				OFFSET -0.033538 0.004091 0.144174
				CHANNELS 6 Xposition Yposition Zposition Zrotation Xrotation Yrotation
				JOINT RightArm
				{
					OFFSET -0.121044 0.000000 0.000000
					CHANNELS 6 Xposition Yposition Zposition Zrotation Xrotation Yrotation
					JOINT RightForeArm
					{
						OFFSET -0.257070 0.000000 0.000000
						CHANNELS 6 Xposition Yposition Zposition Zrotation Xrotation Yrotation
						JOINT RightHand
						{
							OFFSET -0.224060 0.000000 0.000000
							CHANNELS 6 Xposition Yposition Zposition Zrotation Xrotation Yrotation
							End Site
							{
								OFFSET -0.128355 0.000000 0.000000
							}
						}
					}
				}
			}
		}
	}
	JOINT LeftUpLeg
	{
		OFFSET 0.085570 0.000000 0.000000
		CHANNELS 6 Xposition Yposition Zposition Zrotation Xrotation Yrotation
		JOINT LeftLeg
		{
			OFFSET 0.000000 0.000000 -0.385526
			CHANNELS 6 Xposition Yposition Zposition Zrotation Xrotation Yrotation
			JOINT LeftFoot
			{
				OFFSET 0.000000 0.000000 -0.365921
				CHANNELS 6 Xposition Yposition Zposition Zrotation Xrotation Yrotation
				JOINT LeftToeBase
				{
					OFFSET 0.000000 -0.128355 -0.055620
					CHANNELS 6 Xposition Yposition Zposition Zrotation Xrotation Yrotation
					End Site
					{
						OFFSET 0.000000 -0.034228 0.000000
					}
				}
			}
		}
	}
	JOINT RightUpLeg
	{
		OFFSET -0.085570 0.000000 0.000000
		CHANNELS 6 Xposition Yposition Zposition Zrotation Xrotation Yrotation
		JOINT RightLeg
		{
			OFFSET 0.000000 0.000000 -0.385526
			CHANNELS 6 Xposition Yposition Zposition Zrotation Xrotation Yrotation
			JOINT RightFoot
			{
				OFFSET 0.000000 0.000000 -0.365921
				CHANNELS 6 Xposition Yposition Zposition Zrotation Xrotation Yrotation
				JOINT RightToeBase
				{
					OFFSET 0.000000 -0.128355 -0.055620
					CHANNELS 6 Xposition Yposition Zposition Zrotation Xrotation Yrotation
					End Site
					{
						OFFSET 0.000000 -0.034228 0.000000
					}
				}
			}
		}
	}
}
MOTION
Frames: 4
Frame Time: 0.016667
0.033004 0.074725 0.826793 -8.350512 -7.699992 -1.660397 0.000000 -0.000000 0.070167 -0.789552 -2.143620 -0.735389 -0.000000 -0.000000 0.166666 -0.220825 4.522973 -0.968516 -0.000000 -0.000000 0.183780 -0.022981 11.487667 1.066376 -0.000000 -0.017114 0.132633 0.507922 2.791782 5.349347 0.034466 0.004091 0.144174 -0.205925 10.085689 -0.390940 0.121044 0.000000 -0.000000 -25.530735 -2.399296 71.251017 0.257070 0.000000 0.000000 -44.508620 2.008613 -2.248870 0.224060 -0.000000 -0.000000 -11.185154 0.465062 6.361517 -0.033538 0.004091 0.144174 -18.180213 7.785548 5.873791 -0.121044 -0.000000 -0.000000 39.824845 1.329566 -77.580349 -0.257070 0.000000 0.000000 34.827722 -1.646998 25.924048 -0.224060 0.000000 0.000000 14.761154 -6.578560 25.366908 0.085570 -0.000000 -0.000000 0.004069 10.205937 -1.624373 0.000000 0.000000 -0.385526 2.612513 7.819518 -1.462325 0.000000 0.000000 -0.365921 17.236947 -4.221179 5.716040 0.000000 -0.128355 -0.055620 -0.000000 -0.000003 0.000000 -0.085570 -0.000000 -0.000000 -0.314003 6.077836 3.900120 -0.000000 0.000000 -0.385526 13.467081 5.618518 -3.290427 -0.000000 0.000000 -0.365921 -1.163256 0.507254 8.407923 0.000000 -0.128355 -0.055620 -0.000000 0.000000 -0.000000 
0.032138 0.075281 0.826833 -8.506217 -7.632774 -1.662150 -0.000000 -0.000000 0.070167 -0.792004 -2.047282 -0.641394 0.000000 -0.000000 0.166666 -0.204537 4.638434 -1.378973 -0.000000 -0.000000 0.183780 -0.259188 11.959508 0.836701 -0.000000 -0.017114 0.132633 0.489309 1.914864 6.850707 0.034466 0.004091 0.144174 -0.374276 9.879750 -0.477255 0.121044 0.000000 0.000000 -25.936726 -2.007233 71.203370 0.257070 0.000000 -0.000000 -46.653033 2.434653 -2.052904 0.224060 -0.000000 0.000000 -11.110203 0.799601 7.703771 -0.033538 0.004091 0.144174 -18.015005 7.924438 5.758492 -0.121044 0.000000 0.000000 41.243298 1.308544 -77.694741 -0.257070 0.000000 -0.000000 35.544041 -1.982947 26.266157 -0.224060 -0.000000 0.000000 15.104509 -7.085704 25.691400 0.085570 -0.000000 -0.000000 -0.081457 9.648794 -1.580981 0.000000 0.000000 -0.385526 3.158376 8.705151 -1.686779 0.000000 0.000000 -0.365921 17.019815 -4.345971 5.955574 0.000000 -0.128355 -0.055620 0.000001 0.000003 -0.000000 -0.085570 -0.000000 -0.000000 -0.454770 5.586550 3.833618 -0.000000 0.000000 -0.385526 14.501764 6.304259 -3.517401 -0.000000 0.000000 -0.365921 -1.980471 0.355708 8.409605 -0.000000 -0.128355 -0.055620 0.000000 0.000001 0.000001 
0.031405 0.075589 0.826785 -8.632385 -7.650012 -1.685414 -0.000000 -0.000000 0.070167 -0.814121 -1.773453 -0.572949 -0.000000 -0.000000 0.166666 -0.196092 4.599469 -1.807753 0.000000 -0.000000 0.183780 0.227119 11.605777 1.289253 -0.000000 -0.017114 0.132633 0.945004 2.487398 6.973371 0.034466 0.004091 0.144174 -0.480300 9.806021 -0.436631 0.121044 0.000000 0.000000 -26.419875 -1.606682 71.054704 0.257070 -0.000000 -0.000000 -48.778499 2.454551 -1.955750 0.224060 -0.000000 -0.000000 -10.610483 0.830823 7.930853 -0.033538 0.004091 0.144174 -17.833749 8.080624 5.743405 -0.121044 0.000000 -0.000000 42.461630 1.329294 -77.638378 -0.257070 0.000000 -0.000000 35.961489 -1.543724 26.474681 -0.224060 -0.000000 0.000000 15.279371 -6.947701 24.548405 0.085570 0.000000 -0.000000 -0.101498 9.222323 -1.537416 -0.000000 0.000000 -0.385526 3.342333 9.562749 -1.867881 0.000000 0.000000 -0.365921 16.841544 -4.516851 5.955645 0.000000 -0.128355 -0.055620 0.000001 -0.000000 0.000001 -0.085570 0.000000 -0.000000 -0.685733 5.182111 3.823402 0.000000 0.000000 -0.385526 15.507285 7.002234 -3.785333 0.000000 0.000000 -0.365921 -2.912651 0.031731 8.223715 0.000000 -0.128355 -0.055620 -0.000000 0.000000 0.000001 
0.030736 0.076029 0.826618 -8.723384 -7.627872 -1.719621 0.000000 -0.000000 0.070167 -0.841525 -1.600787 -0.534244 -0.000000 -0.000000 0.166666 -0.190937 4.731704 -2.117635 -0.000000 -0.000000 0.183780 0.207762 11.617146 1.445110 -0.000000 -0.017114 0.132633 1.022932 2.228761 7.753168 0.034466 0.004091 0.144174 -0.613152 9.576768 -0.545089 0.121044 0.000000 -0.000000 -26.857287 -1.158209 70.987584 0.257070 0.000000 -0.000000 -50.907609 2.432808 -2.003405 0.224060 0.000000 -0.000000 -9.782000 0.816816 7.735833 -0.033538 0.004091 0.144174 -17.615027 8.152937 5.620481 -0.121044 0.000000 -0.000000 43.571860 1.281922 -77.325856 -0.257070 0.000000 -0.000000 36.998745 -1.995897 26.281402 -0.224060 -0.000000 0.000000 15.554016 -7.336058 25.966509 0.085570 -0.000000 -0.000000 -0.193936 8.771086 -1.467016 -0.000000 0.000000 -0.385526 3.724215 10.340587 -2.063162 -0.000000 0.000000 -0.365921 16.465102 -4.610650 5.813547 -0.000000 -0.128355 -0.055620 -0.000002 -0.000001 -0.000000 -0.085570 -0.000000 -0.000000 -1.099732 4.680279 3.846324 0.000000 0.000000 -0.385526 16.595119 7.786788 -4.080432 -0.000000 0.000000 -0.365921 -3.608214 -0.353055 8.151698 0.000000 -0.128355 -0.055620 0.000000 0.000002 0.000000 
